<?xml version="1.0" standalone="no"?>
<!DOCTYPE svg PUBLIC "-//W3C//DTD SVG 20010904//EN"
 "http://www.w3.org/TR/2001/REC-SVG-20010904/DTD/svg10.dtd">
<svg version="1.0" xmlns="http://www.w3.org/2000/svg"
 width="39.000000pt" height="39.000000pt" viewBox="0 0 39.000000 39.000000"
 preserveAspectRatio="xMidYMid meet">

<g transform="translate(0.000000,39.000000) scale(0.100000,-0.100000)"
fill="#000000" stroke="none">
<path d="M190 356 c0 -2 21 -16 46 -31 27 -16 58 -46 75 -73 28 -44 29 -45 29
-18 0 44 -35 92 -80 110 -39 15 -70 21 -70 12z"/>
<path d="M123 333 c-26 -10 -11 -29 31 -41 57 -15 110 -68 126 -128 13 -45 25
-51 44 -22 7 12 2 31 -20 75 -24 46 -40 64 -84 91 -52 31 -71 36 -97 25z"/>
<path d="M56 296 c-9 -19 -16 -42 -16 -53 1 -10 7 -1 14 20 8 20 19 44 26 52
7 9 8 15 2 15 -5 0 -17 -15 -26 -34z"/>
<path d="M80 260 c-11 -11 -20 -27 -20 -35 0 -19 35 -55 53 -55 22 0 49 -36
45 -62 -2 -17 2 -24 20 -26 19 -3 22 1 22 30 0 43 -24 76 -67 94 -41 17 -36
37 6 23 43 -15 74 -54 80 -101 6 -45 36 -66 43 -31 13 60 -35 142 -99 169 -44
19 -59 18 -83 -6z"/>
<path d="M40 187 c-1 -40 70 -127 103 -127 7 0 -1 8 -18 18 -39 24 -54 44 -71
89 -7 21 -13 30 -14 20z"/>
<path d="M106 143 c-12 -12 -6 -33 9 -33 8 0 15 6 15 14 0 17 -14 28 -24 19z"/>
<path d="M285 79 c-16 -10 -25 -19 -19 -19 7 0 22 9 35 20 30 24 23 24 -16 -1z"/>
<path d="M168 53 c6 -2 18 -2 25 0 6 3 1 5 -13 5 -14 0 -19 -2 -12 -5z"/>
<path d="M218 53 c6 -2 18 -2 25 0 6 3 1 5 -13 5 -14 0 -19 -2 -12 -5z"/>
</g>
</svg>
