<?xml version="1.0" standalone="no"?>
<!DOCTYPE svg PUBLIC "-//W3C//DTD SVG 20010904//EN"
 "http://www.w3.org/TR/2001/REC-SVG-20010904/DTD/svg10.dtd">
<svg version="1.0" xmlns="http://www.w3.org/2000/svg"
 width="112.000000pt" height="92.000000pt" viewBox="0 0 112.000000 92.000000"
 preserveAspectRatio="xMidYMid meet">

<g transform="translate(0.000000,92.000000) scale(0.100000,-0.100000)"
fill="#000000" stroke="none">
<path d="M545 841 c-4 -7 -5 -13 -4 -14 2 -1 36 -18 74 -36 97 -48 200 -152
246 -248 19 -39 39 -71 44 -69 19 5 16 68 -5 139 -19 61 -30 79 -83 132 -44
44 -77 67 -112 78 -69 24 -150 33 -160 18z"/>
<path d="M383 784 c-20 -15 -33 -34 -33 -48 0 -20 8 -24 63 -34 184 -34 326
-177 358 -359 10 -57 14 -63 35 -63 16 0 31 12 49 38 24 36 24 39 10 92 -49
186 -198 337 -380 385 -73 19 -64 20 -102 -11z"/>
<path d="M267 758 c-117 -156 -110 -366 17 -513 91 -106 263 -158 401 -121 88
23 196 89 177 108 -6 6 -26 -3 -55 -25 -79 -60 -186 -86 -282 -68 -125 23
-229 104 -283 219 -23 49 -27 70 -27 147 0 103 18 161 70 230 31 40 34 55 14
55 -4 0 -19 -15 -32 -32z"/>
<path d="M304 641 c-18 -11 -38 -36 -48 -61 -29 -73 6 -146 84 -171 75 -24 91
-33 110 -64 22 -35 26 -85 10 -115 -9 -16 -5 -22 19 -35 48 -24 79 -20 88 13
14 50 7 125 -15 168 -29 58 -94 110 -153 125 -36 9 -49 18 -49 31 0 27 55 23
118 -8 100 -50 157 -149 150 -264 -3 -63 2 -70 59 -70 43 0 56 27 50 105 -13
167 -112 297 -266 345 -79 25 -117 25 -157 1z"/>
<path d="M340 332 c-46 -37 9 -106 59 -75 22 14 25 57 6 77 -21 21 -38 20 -65
-2z"/>
</g>
</svg>
